{"accessors" : [{"bufferView" : 0, "byteOffset" : 0, "componentType" : 5123, "count" : 37800, "type" : "SCALAR", "max" : [37799], "min" : [0]}, {"bufferView" : 1, "byteOffset" : 0, "componentType" : 5126, "count" : 37800, "type" : "VEC3", "max" : [590.8657836914062, 448.3096008300781, 134.7543182373047], "min" : [-46.662452697753906, -47.402713775634766, 0], "name" : "POSITION"}, {"bufferView" : 1, "byteOffset" : 12, "componentType" : 5126, "count" : 37800, "type" : "VEC3", "max" : [1.0000044107437134, 1.0000044107437134, 1.0000044107437134], "min" : [-1.0000044107437134, -1.0000044107437134, -1.0000044107437134], "name" : "NORMAL"}, {"bufferView" : 1, "byteOffset" : 24, "componentType" : 5126, "count" : 37800, "type" : "VEC2", "max" : [1.0075924396514893, -0], "min" : [-0.007592497393488884, -1], "name" : "TEXCOORD_0"}, {"bufferView" : 0, "byteOffset" : 75600, "componentType" : 5123, "count" : 36, "type" : "SCALAR", "max" : [35], "min" : [0]}, {"bufferView" : 2, "byteOffset" : 0, "componentType" : 5126, "count" : 36, "type" : "VEC3", "max" : [317.24017333984375, 257.05194091796875, 1.572690486907959], "min" : [-330.70458984375, -246.50633239746094, 0], "name" : "POSITION"}, {"bufferView" : 2, "byteOffset" : 12, "componentType" : 5126, "count" : 36, "type" : "VEC3", "max" : [1.0000044107437134, 1.0000044107437134, 1.0000044107437134], "min" : [-1.0000044107437134, -1.0000044107437134, -1.0000044107437134], "name" : "NORMAL"}, {"bufferView" : 2, "byteOffset" : 24, "componentType" : 5126, "count" : 36, "type" : "VEC2", "max" : [1, -0], "min" : [0, -1], "name" : "TEXCOORD_0"}, {"bufferView" : 0, "byteOffset" : 75672, "componentType" : 5123, "count" : 11802, "type" : "SCALAR", "max" : [11801], "min" : [0]}, {"bufferView" : 3, "byteOffset" : 0, "componentType" : 5126, "count" : 11802, "type" : "VEC3", "max" : [41.948917388916016, 335.2621154785156, 282.57696533203125], "min" : [-484.71258544921875, -41.94892120361328, 0], "name" : "POSITION"}, {"bufferView" : 3, "byteOffset" : 12, "componentType" : 5126, "count" : 11802, "type" : "VEC3", "max" : [1.0000044107437134, 1.0000044107437134, 1.0000044107437134], "min" : [-1.0000044107437134, -1.0000044107437134, -1.0000044107437134], "name" : "NORMAL"}, {"bufferView" : 3, "byteOffset" : 24, "componentType" : 5126, "count" : 11802, "type" : "VEC2", "max" : [1.0075924396514893, -0], "min" : [-0.007592665031552315, -0.9999999403953552], "name" : "TEXCOORD_0"}, {"bufferView" : 0, "byteOffset" : 99276, "componentType" : 5123, "count" : 2328, "type" : "SCALAR", "max" : [2327], "min" : [0]}, {"bufferView" : 4, "byteOffset" : 0, "componentType" : 5126, "count" : 2328, "type" : "VEC3", "max" : [87.31388854980469, 75.61605072021484, 265.6751708984375], "min" : [-87.31388854980469, -75.61605072021484, 0], "name" : "POSITION"}, {"bufferView" : 4, "byteOffset" : 12, "componentType" : 5126, "count" : 2328, "type" : "VEC3", "max" : [1.0000044107437134, 1.0000044107437134, 1.0000044107437134], "min" : [-1.0000044107437134, -1.0000044107437134, -1.0000044107437134], "name" : "NORMAL"}, {"bufferView" : 4, "byteOffset" : 24, "componentType" : 5126, "count" : 2328, "type" : "VEC2", "max" : [0.9166666865348816, -0], "min" : [-0.08333331346511841, -1], "name" : "TEXCOORD_0"}, {"bufferView" : 0, "byteOffset" : 103932, "componentType" : 5123, "count" : 2964, "type" : "SCALAR", "max" : [2963], "min" : [0]}, {"bufferView" : 5, "byteOffset" : 0, "componentType" : 5126, "count" : 2964, "type" : "VEC3", "max" : [18.080781936645508, 18.080781936645508, 114.0608901977539], "min" : [-18.080781936645508, -18.080780029296875, -50.02067565917969], "name" : "POSITION"}, {"bufferView" : 5, "byteOffset" : 12, "componentType" : 5126, "count" : 2964, "type" : "VEC3", "max" : [1.0000044107437134, 1.0000044107437134, 1.0000044107437134], "min" : [-1.0000044107437134, -1.0000044107437134, -1.0000044107437134], "name" : "NORMAL"}, {"bufferView" : 5, "byteOffset" : 24, "componentType" : 5126, "count" : 2964, "type" : "VEC2", "max" : [1.0075924396514893, -0], "min" : [-0.007592543959617615, -1], "name" : "TEXCOORD_0"}, {"bufferView" : 0, "byteOffset" : 109860, "componentType" : 5123, "count" : 2964, "type" : "SCALAR", "max" : [2963], "min" : [0]}, {"bufferView" : 6, "byteOffset" : 0, "componentType" : 5126, "count" : 2964, "type" : "VEC3", "max" : [18.080781936645508, 18.080781936645508, 114.0608901977539], "min" : [-18.080781936645508, -18.080780029296875, -50.02067565917969], "name" : "POSITION"}, {"bufferView" : 6, "byteOffset" : 12, "componentType" : 5126, "count" : 2964, "type" : "VEC3", "max" : [1.0000044107437134, 1.0000044107437134, 1.0000044107437134], "min" : [-1.0000044107437134, -1.0000044107437134, -1.0000044107437134], "name" : "NORMAL"}, {"bufferView" : 6, "byteOffset" : 24, "componentType" : 5126, "count" : 2964, "type" : "VEC2", "max" : [1.0075924396514893, -0], "min" : [-0.007592543959617615, -1], "name" : "TEXCOORD_0"}, {"bufferView" : 0, "byteOffset" : 115788, "componentType" : 5123, "count" : 2964, "type" : "SCALAR", "max" : [2963], "min" : [0]}, {"bufferView" : 7, "byteOffset" : 0, "componentType" : 5126, "count" : 2964, "type" : "VEC3", "max" : [18.080781936645508, 18.080781936645508, 114.0608901977539], "min" : [-18.080781936645508, -18.080780029296875, -50.02067565917969], "name" : "POSITION"}, {"bufferView" : 7, "byteOffset" : 12, "componentType" : 5126, "count" : 2964, "type" : "VEC3", "max" : [1.0000044107437134, 1.0000044107437134, 1.0000044107437134], "min" : [-1.0000044107437134, -1.0000044107437134, -1.0000044107437134], "name" : "NORMAL"}, {"bufferView" : 7, "byteOffset" : 24, "componentType" : 5126, "count" : 2964, "type" : "VEC2", "max" : [1.0075924396514893, -0], "min" : [-0.007592543959617615, -1], "name" : "TEXCOORD_0"}, {"bufferView" : 0, "byteOffset" : 121716, "componentType" : 5123, "count" : 2964, "type" : "SCALAR", "max" : [2963], "min" : [0]}, {"bufferView" : 8, "byteOffset" : 0, "componentType" : 5126, "count" : 2964, "type" : "VEC3", "max" : [18.080781936645508, 18.080781936645508, 114.0608901977539], "min" : [-18.080781936645508, -18.080780029296875, -50.02067565917969], "name" : "POSITION"}, {"bufferView" : 8, "byteOffset" : 12, "componentType" : 5126, "count" : 2964, "type" : "VEC3", "max" : [1.0000044107437134, 1.0000044107437134, 1.0000044107437134], "min" : [-1.0000044107437134, -1.0000044107437134, -1.0000044107437134], "name" : "NORMAL"}, {"bufferView" : 8, "byteOffset" : 24, "componentType" : 5126, "count" : 2964, "type" : "VEC2", "max" : [1.0075924396514893, -0], "min" : [-0.007592543959617615, -1], "name" : "TEXCOORD_0"}, {"bufferView" : 0, "byteOffset" : 127644, "componentType" : 5123, "count" : 2964, "type" : "SCALAR", "max" : [2963], "min" : [0]}, {"bufferView" : 9, "byteOffset" : 0, "componentType" : 5126, "count" : 2964, "type" : "VEC3", "max" : [18.080781936645508, 18.080781936645508, 114.0608901977539], "min" : [-18.080781936645508, -18.080780029296875, -50.02067565917969], "name" : "POSITION"}, {"bufferView" : 9, "byteOffset" : 12, "componentType" : 5126, "count" : 2964, "type" : "VEC3", "max" : [1.0000044107437134, 1.0000044107437134, 1.0000044107437134], "min" : [-1.0000044107437134, -1.0000044107437134, -1.0000044107437134], "name" : "NORMAL"}, {"bufferView" : 9, "byteOffset" : 24, "componentType" : 5126, "count" : 2964, "type" : "VEC2", "max" : [1.0075924396514893, -0], "min" : [-0.007592543959617615, -1], "name" : "TEXCOORD_0"}, {"bufferView" : 0, "byteOffset" : 133572, "componentType" : 5123, "count" : 2964, "type" : "SCALAR", "max" : [2963], "min" : [0]}, {"bufferView" : 10, "byteOffset" : 0, "componentType" : 5126, "count" : 2964, "type" : "VEC3", "max" : [18.080781936645508, 18.080781936645508, 114.0608901977539], "min" : [-18.080781936645508, -18.080780029296875, -50.02067565917969], "name" : "POSITION"}, {"bufferView" : 10, "byteOffset" : 12, "componentType" : 5126, "count" : 2964, "type" : "VEC3", "max" : [1.0000044107437134, 1.0000044107437134, 1.0000044107437134], "min" : [-1.0000044107437134, -1.0000044107437134, -1.0000044107437134], "name" : "NORMAL"}, {"bufferView" : 10, "byteOffset" : 24, "componentType" : 5126, "count" : 2964, "type" : "VEC2", "max" : [1.0075924396514893, -0], "min" : [-0.007592543959617615, -1], "name" : "TEXCOORD_0"}], "asset" : {"generator" : "Aspose.3D 22.10", "version" : "2.0"}, "buffers" : [{"uri" : "data:application/octet-stream;base64,", "byteLength" : 2371544}], "bufferViews" : [{"buffer" : 0, "byteOffset" : 0, "byteLength" : 139500, "target" : 34963}, {"buffer" : 0, "byteOffset" : 139504, "byteLength" : 1209600, "byteStride" : 32, "target" : 34962}, {"buffer" : 0, "byteOffset" : 1349108, "byteLength" : 1152, "byteStride" : 32, "target" : 34962}, {"buffer" : 0, "byteOffset" : 1350264, "byteLength" : 377664, "byteStride" : 32, "target" : 34962}, {"buffer" : 0, "byteOffset" : 1727932, "byteLength" : 74496, "byteStride" : 32, "target" : 34962}, {"buffer" : 0, "byteOffset" : 1802432, "byteLength" : 94848, "byteStride" : 32, "target" : 34962}, {"buffer" : 0, "byteOffset" : 1897284, "byteLength" : 94848, "byteStride" : 32, "target" : 34962}, {"buffer" : 0, "byteOffset" : 1992136, "byteLength" : 94848, "byteStride" : 32, "target" : 34962}, {"buffer" : 0, "byteOffset" : 2086988, "byteLength" : 94848, "byteStride" : 32, "target" : 34962}, {"buffer" : 0, "byteOffset" : 2181840, "byteLength" : 94848, "byteStride" : 32, "target" : 34962}, {"buffer" : 0, "byteOffset" : 2276692, "byteLength" : 94848, "byteStride" : 32, "target" : 34962}], "meshes" : [{"primitives" : [{"attributes" : {"POSITION" : 1, "NORMAL" : 2, "TEXCOORD_0" : 3}, "indices" : 0, "mode" : 4}], "name" : ""}, {"primitives" : [{"attributes" : {"POSITION" : 5, "NORMAL" : 6, "TEXCOORD_0" : 7}, "indices" : 4, "mode" : 4}], "name" : ""}, {"primitives" : [{"attributes" : {"POSITION" : 9, "NORMAL" : 10, "TEXCOORD_0" : 11}, "indices" : 8, "mode" : 4}], "name" : ""}, {"primitives" : [{"attributes" : {"POSITION" : 13, "NORMAL" : 14, "TEXCOORD_0" : 15}, "indices" : 12, "mode" : 4}], "name" : ""}, {"primitives" : [{"attributes" : {"POSITION" : 17, "NORMAL" : 18, "TEXCOORD_0" : 19}, "indices" : 16, "mode" : 4}], "name" : ""}, {"primitives" : [{"attributes" : {"POSITION" : 21, "NORMAL" : 22, "TEXCOORD_0" : 23}, "indices" : 20, "mode" : 4}], "name" : ""}, {"primitives" : [{"attributes" : {"POSITION" : 25, "NORMAL" : 26, "TEXCOORD_0" : 27}, "indices" : 24, "mode" : 4}], "name" : ""}, {"primitives" : [{"attributes" : {"POSITION" : 29, "NORMAL" : 30, "TEXCOORD_0" : 31}, "indices" : 28, "mode" : 4}], "name" : ""}, {"primitives" : [{"attributes" : {"POSITION" : 33, "NORMAL" : 34, "TEXCOORD_0" : 35}, "indices" : 32, "mode" : 4}], "name" : ""}, {"primitives" : [{"attributes" : {"POSITION" : 37, "NORMAL" : 38, "TEXCOORD_0" : 39}, "indices" : 36, "mode" : 4}], "name" : ""}], "nodes" : [{"matrix" : [1, 0, 0, 0, 0, 6.123233995736766E-17, -1, 0, 0, 1, 6.123233995736766E-17, 0, -0.3604450225830078, 0, 350.136962890625, 1], "mesh" : 0, "name" : "Cylinder002"}, {"matrix" : [1, 0, 0, 0, 0, 6.123233995736766E-17, -1, 0, 0, 1, 6.123233995736766E-17, 0, 277.74554443359375, -1.5949382781982422, 153.7952117919922, 1], "mesh" : 1, "name" : "Box001"}, {"matrix" : [1, 0, 0, 0, 0, 6.123233995736766E-17, -1, 0, 0, 1, 6.123233995736766E-17, 0, 494.1162414550781, 0, 297.5930480957031, 1], "mesh" : 2, "name" : "Cylinder006"}, {"matrix" : [1.44505, 0, 0, 0, 0, 8.848379285539413E-17, -1.44505, 0, 0, 1.44505, 8.848379285539413E-17, 0, 274.7445983886719, 0.14487457275390625, 151.0877227783203, 1], "mesh" : 3, "name" : "Cylinder007"}, {"matrix" : [1, 0, 0, 0, 0, 6.123233995736766E-17, -1, 0, 0, 1, 6.123233995736766E-17, 0, 210.3643341064453, 49.13114929199219, 269.8336181640625, 1], "mesh" : 4, "name" : "Cylinder008"}, {"matrix" : [-0.9063078683024212, -2.587789440382903E-17, 0.4226180874656469, 0, 0.4226180874656469, -5.549535149793105E-17, 0.9063078683024212, 0, 0, 1, 6.123233995736766E-17, 0, 210.3643341064453, 49.13114929199219, 33.26446533203125, 1], "mesh" : 5, "name" : "Cylinder009"}, {"matrix" : [-0.9396925332510402, 2.0942708414761377E-17, -0.3420203838256468, 0, -0.3420203838256468, -5.75395726514277E-17, 0.9396925332510402, 0, 0, 1, 6.123233995736766E-17, 0, 338.2439270019531, 49.13114929199219, 33.26446533203125, 1], "mesh" : 6, "name" : "Cylinder010"}, {"matrix" : [1, 0, 0, 0, 0, 6.123233995736766E-17, -1, 0, 0, 1, 6.123233995736766E-17, 0, 338.2439270019531, 49.13114929199219, 268.9382629394531, 1], "mesh" : 7, "name" : "Cylinder011"}, {"matrix" : [-4.371138822550557E-08, 6.12323399573676E-17, -0.999999999999999, 0, -0.999999999999999, -2.6765505838326353E-24, 4.371138822550557E-08, 0, 0, 1, 6.123233995736766E-17, 0, 406.59783935546875, 49.13114929199219, 150.50021362304688, 1], "mesh" : 8, "name" : "Cylinder012"}, {"matrix" : [0.25881894880749606, -5.914590014886067E-17, 0.9659258520912373, 0, 0.9659258520912373, 1.5848089860789137E-17, -0.25881894880749606, 0, 0, 1, 6.123233995736766E-17, 0, 142.65896606445312, 49.13114929199219, 150.78436279296875, 1], "mesh" : 9, "name" : "Cylinder013"}], "scene" : 0, "scenes" : [{"nodes" : [0, 1, 2, 3, 4, 5, 6, 7, 8, 9]}]}