{
    "asset" : {
        "generator" : "Khronos glTF Blender I/O v3.4.50",
        "version" : "2.0"
    },
    "scene" : 0,
    "scenes" : [
        {
            "name" : "Scene",
            "nodes" : [
                0
            ]
        }
    ],
    "nodes" : [
        {
            "extras" : {
                "MaxHandle" : 26
            },
            "mesh" : 0,
            "name" : "Cylinder007",
            "translation" : [
                5.930978775024414,
                2.9511823654174805,
                1.619905948638916
            ]
        }
    ],
    "meshes" : [
        {
            "name" : "Mesh",
            "primitives" : [
                {
                    "attributes" : {
                        "POSITION" : 0,
                        "TEXCOORD_0" : 1,
                        "NORMAL" : 2
                    },
                    "indices" : 3
                }
            ]
        }
    ],
    "accessors" : [
        {
            "bufferView" : 0,
            "componentType" : 5126,
            "count" : 34419,
            "max" : [
                8.134123802185059,
                9.751412391662598,
                6.330030918121338
            ],
            "min" : [
                -8.3236722946167,
                -0.04419152811169624,
                -6.460349082946777
            ],
            "type" : "VEC3"
        },
        {
            "bufferView" : 1,
            "componentType" : 5126,
            "count" : 34419,
            "type" : "VEC2"
        },
        {
            "bufferView" : 2,
            "componentType" : 5126,
            "count" : 34419,
            "type" : "VEC3"
        },
        {
            "bufferView" : 3,
            "componentType" : 5123,
            "count" : 69750,
            "type" : "SCALAR"
        }
    ],
    "bufferViews" : [
        {
            "buffer" : 0,
            "byteLength" : 413028,
            "byteOffset" : 0,
            "target" : 34962
        },
        {
            "buffer" : 0,
            "byteLength" : 275352,
            "byteOffset" : 413028,
            "target" : 34962
        },
        {
            "buffer" : 0,
            "byteLength" : 413028,
            "byteOffset" : 688380,
            "target" : 34962
        },
        {
            "buffer" : 0,
            "byteLength" : 139500,
            "byteOffset" : 1101408,
            "target" : 34963
        }
    ],
    "buffers" : [
        {
            "byteLength" : 1240908,
            "uri" : "castle.bin"
        }
    ]
}
