{
    "asset" : {
        "generator" : "Khronos glTF Blender I/O v3.4.50",
        "version" : "2.0"
    },
    "scene" : 0,
    "scenes" : [
        {
            "name" : "Scene",
            "nodes" : [
                0
            ]
        }
    ],
    "nodes" : [
        {
            "mesh" : 0,
            "name" : "Cylinder007",
            "scale" : [
                0.03670426830649376,
                0.03670426830649376,
                0.03670426830649376
            ],
            "translation" : [
                6.978512763977051,
                0.003679814049974084,
                4.376810550689697
            ]
        }
    ],
    "meshes" : [
        {
            "name" : "Mesh",
            "primitives" : [
                {
                    "attributes" : {
                        "POSITION" : 0,
                        "TEXCOORD_0" : 1,
                        "NORMAL" : 2
                    },
                    "indices" : 3
                }
            ]
        }
    ],
    "accessors" : [
        {
            "bufferView" : 0,
            "componentType" : 5126,
            "count" : 34415,
            "max" : [
                221.6124725341797,
                265.6751708984375,
                172.46034240722656
            ],
            "min" : [
                -226.77667236328125,
                -1.2039810419082642,
                -176.01083374023438
            ],
            "type" : "VEC3"
        },
        {
            "bufferView" : 1,
            "componentType" : 5126,
            "count" : 34415,
            "type" : "VEC2"
        },
        {
            "bufferView" : 2,
            "componentType" : 5126,
            "count" : 34415,
            "type" : "VEC3"
        },
        {
            "bufferView" : 3,
            "componentType" : 5123,
            "count" : 69750,
            "type" : "SCALAR"
        }
    ],
    "bufferViews" : [
        {
            "buffer" : 0,
            "byteLength" : 412980,
            "byteOffset" : 0,
            "target" : 34962
        },
        {
            "buffer" : 0,
            "byteLength" : 275320,
            "byteOffset" : 412980,
            "target" : 34962
        },
        {
            "buffer" : 0,
            "byteLength" : 412980,
            "byteOffset" : 688300,
            "target" : 34962
        },
        {
            "buffer" : 0,
            "byteLength" : 139500,
            "byteOffset" : 1101280,
            "target" : 34963
        }
    ],
    "buffers" : [
        {
            "byteLength" : 1240780,
            "uri" : "castle.bin"
        }
    ]
}
