{
    "asset" : {
        "generator" : "Khronos glTF Blender I/O v3.4.50",
        "version" : "2.0"
    },
    "scene" : 0,
    "scenes" : [
        {
            "name" : "Scene",
            "nodes" : [
                0,
                1,
                2,
                3,
                4,
                5,
                6,
                7,
                8,
                9
            ]
        }
    ],
    "nodes" : [
        {
            "mesh" : 0,
            "name" : "Cylinder002",
            "scale" : [
                0.02539999969303608,
                0.02539999969303608,
                0.02539999969303608
            ],
            "translation" : [
                -0.009155303239822388,
                0,
                8.893478393554688
            ]
        },
        {
            "mesh" : 1,
            "name" : "Box001",
            "scale" : [
                0.02539999969303608,
                0.02539999969303608,
                0.02539999969303608
            ],
            "translation" : [
                7.054736614227295,
                -0.04051143303513527,
                3.906398296356201
            ]
        },
        {
            "mesh" : 2,
            "name" : "Cylinder006",
            "scale" : [
                0.02539999969303608,
                0.02539999969303608,
                0.02539999969303608
            ],
            "translation" : [
                12.550552368164062,
                0,
                7.558863162994385
            ]
        },
        {
            "mesh" : 3,
            "name" : "Cylinder007",
            "scale" : [
                0.03670426830649376,
                0.03670426830649376,
                0.03670426830649376
            ],
            "translation" : [
                6.978512763977051,
                0.003679814049974084,
                3.837628126144409
            ]
        },
        {
            "mesh" : 4,
            "name" : "Cylinder008",
            "scale" : [
                0.02539999969303608,
                0.02539999969303608,
                0.02539999969303608
            ],
            "translation" : [
                5.343254089355469,
                1.2479311227798462,
                6.853773593902588
            ]
        },
        {
            "mesh" : 5,
            "name" : "Cylinder009",
            "rotation" : [
                0,
                -0.976296067237854,
                0,
                0.21643951535224915
            ],
            "scale" : [
                0.02539999783039093,
                0.02539999969303608,
                0.02539999783039093
            ],
            "translation" : [
                5.343254089355469,
                1.2479311227798462,
                0.8449174165725708
            ]
        },
        {
            "mesh" : 6,
            "name" : "Cylinder010",
            "rotation" : [
                0,
                0.9848077297210693,
                0,
                0.17364834249019623
            ],
            "scale" : [
                0.02539999783039093,
                0.02539999969303608,
                0.02539999783039093
            ],
            "translation" : [
                8.591395378112793,
                1.2479311227798462,
                0.8449174165725708
            ]
        },
        {
            "mesh" : 7,
            "name" : "Cylinder011",
            "scale" : [
                0.02539999969303608,
                0.02539999969303608,
                0.02539999969303608
            ],
            "translation" : [
                8.591395378112793,
                1.2479311227798462,
                6.831031799316406
            ]
        },
        {
            "mesh" : 8,
            "name" : "Cylinder012",
            "rotation" : [
                0,
                0.7071068286895752,
                0,
                0.7071067094802856
            ],
            "scale" : [
                0.02539999969303608,
                0.02539999969303608,
                0.02539999969303608
            ],
            "translation" : [
                10.327585220336914,
                1.2479311227798462,
                3.8227052688598633
            ]
        },
        {
            "mesh" : 9,
            "name" : "Cylinder013",
            "rotation" : [
                0,
                -0.6087613105773926,
                0,
                0.7933533787727356
            ],
            "scale" : [
                0.02540000155568123,
                0.02539999969303608,
                0.02540000155568123
            ],
            "translation" : [
                3.62353777885437,
                1.2479311227798462,
                3.829922676086426
            ]
        }
    ],
    "meshes" : [
        {
            "name" : "Mesh",
            "primitives" : [
                {
                    "attributes" : {
                        "POSITION" : 0,
                        "TEXCOORD_0" : 1,
                        "NORMAL" : 2
                    },
                    "indices" : 3
                }
            ]
        },
        {
            "name" : "Mesh.001",
            "primitives" : [
                {
                    "attributes" : {
                        "POSITION" : 4,
                        "TEXCOORD_0" : 5,
                        "NORMAL" : 6
                    },
                    "indices" : 7
                }
            ]
        },
        {
            "name" : "Mesh.002",
            "primitives" : [
                {
                    "attributes" : {
                        "POSITION" : 8,
                        "TEXCOORD_0" : 9,
                        "NORMAL" : 10
                    },
                    "indices" : 11
                }
            ]
        },
        {
            "name" : "Mesh.003",
            "primitives" : [
                {
                    "attributes" : {
                        "POSITION" : 12,
                        "TEXCOORD_0" : 13,
                        "NORMAL" : 14
                    },
                    "indices" : 15
                }
            ]
        },
        {
            "name" : "Mesh.004",
            "primitives" : [
                {
                    "attributes" : {
                        "POSITION" : 16,
                        "TEXCOORD_0" : 17,
                        "NORMAL" : 18
                    },
                    "indices" : 19
                }
            ]
        },
        {
            "name" : "Mesh.005",
            "primitives" : [
                {
                    "attributes" : {
                        "POSITION" : 20,
                        "TEXCOORD_0" : 21,
                        "NORMAL" : 22
                    },
                    "indices" : 19
                }
            ]
        },
        {
            "name" : "Mesh.006",
            "primitives" : [
                {
                    "attributes" : {
                        "POSITION" : 23,
                        "TEXCOORD_0" : 24,
                        "NORMAL" : 25
                    },
                    "indices" : 19
                }
            ]
        },
        {
            "name" : "Mesh.007",
            "primitives" : [
                {
                    "attributes" : {
                        "POSITION" : 26,
                        "TEXCOORD_0" : 27,
                        "NORMAL" : 28
                    },
                    "indices" : 19
                }
            ]
        },
        {
            "name" : "Mesh.008",
            "primitives" : [
                {
                    "attributes" : {
                        "POSITION" : 29,
                        "TEXCOORD_0" : 30,
                        "NORMAL" : 31
                    },
                    "indices" : 19
                }
            ]
        },
        {
            "name" : "Mesh.009",
            "primitives" : [
                {
                    "attributes" : {
                        "POSITION" : 32,
                        "TEXCOORD_0" : 33,
                        "NORMAL" : 34
                    },
                    "indices" : 19
                }
            ]
        }
    ],
    "accessors" : [
        {
            "bufferView" : 0,
            "componentType" : 5126,
            "count" : 17357,
            "max" : [
                590.8657836914062,
                134.7543182373047,
                47.402713775634766
            ],
            "min" : [
                -46.662452697753906,
                0,
                -448.3096008300781
            ],
            "type" : "VEC3"
        },
        {
            "bufferView" : 1,
            "componentType" : 5126,
            "count" : 17357,
            "type" : "VEC2"
        },
        {
            "bufferView" : 2,
            "componentType" : 5126,
            "count" : 17357,
            "type" : "VEC3"
        },
        {
            "bufferView" : 3,
            "componentType" : 5123,
            "count" : 37800,
            "type" : "SCALAR"
        },
        {
            "bufferView" : 4,
            "componentType" : 5126,
            "count" : 24,
            "max" : [
                317.24017333984375,
                1.572690486907959,
                246.50633239746094
            ],
            "min" : [
                -330.70458984375,
                0,
                -257.05194091796875
            ],
            "type" : "VEC3"
        },
        {
            "bufferView" : 5,
            "componentType" : 5126,
            "count" : 24,
            "type" : "VEC2"
        },
        {
            "bufferView" : 6,
            "componentType" : 5126,
            "count" : 24,
            "type" : "VEC3"
        },
        {
            "bufferView" : 7,
            "componentType" : 5123,
            "count" : 36,
            "type" : "SCALAR"
        },
        {
            "bufferView" : 8,
            "componentType" : 5126,
            "count" : 6901,
            "max" : [
                41.948917388916016,
                282.57696533203125,
                41.94892120361328
            ],
            "min" : [
                -484.71258544921875,
                0,
                -335.2621154785156
            ],
            "type" : "VEC3"
        },
        {
            "bufferView" : 9,
            "componentType" : 5126,
            "count" : 6901,
            "type" : "VEC2"
        },
        {
            "bufferView" : 10,
            "componentType" : 5126,
            "count" : 6901,
            "type" : "VEC3"
        },
        {
            "bufferView" : 11,
            "componentType" : 5123,
            "count" : 11802,
            "type" : "SCALAR"
        },
        {
            "bufferView" : 12,
            "componentType" : 5126,
            "count" : 1206,
            "max" : [
                87.31388854980469,
                265.6751708984375,
                75.61605072021484
            ],
            "min" : [
                -87.31388854980469,
                0,
                -75.61605072021484
            ],
            "type" : "VEC3"
        },
        {
            "bufferView" : 13,
            "componentType" : 5126,
            "count" : 1206,
            "type" : "VEC2"
        },
        {
            "bufferView" : 14,
            "componentType" : 5126,
            "count" : 1206,
            "type" : "VEC3"
        },
        {
            "bufferView" : 15,
            "componentType" : 5123,
            "count" : 2328,
            "type" : "SCALAR"
        },
        {
            "bufferView" : 16,
            "componentType" : 5126,
            "count" : 1488,
            "max" : [
                18.080781936645508,
                114.0608901977539,
                18.080780029296875
            ],
            "min" : [
                -18.080781936645508,
                -50.02067565917969,
                -18.080781936645508
            ],
            "type" : "VEC3"
        },
        {
            "bufferView" : 17,
            "componentType" : 5126,
            "count" : 1488,
            "type" : "VEC2"
        },
        {
            "bufferView" : 18,
            "componentType" : 5126,
            "count" : 1488,
            "type" : "VEC3"
        },
        {
            "bufferView" : 19,
            "componentType" : 5123,
            "count" : 2964,
            "type" : "SCALAR"
        },
        {
            "bufferView" : 20,
            "componentType" : 5126,
            "count" : 1488,
            "max" : [
                18.080781936645508,
                114.0608901977539,
                18.080780029296875
            ],
            "min" : [
                -18.080781936645508,
                -50.02067565917969,
                -18.080781936645508
            ],
            "type" : "VEC3"
        },
        {
            "bufferView" : 21,
            "componentType" : 5126,
            "count" : 1488,
            "type" : "VEC2"
        },
        {
            "bufferView" : 22,
            "componentType" : 5126,
            "count" : 1488,
            "type" : "VEC3"
        },
        {
            "bufferView" : 23,
            "componentType" : 5126,
            "count" : 1488,
            "max" : [
                18.080781936645508,
                114.0608901977539,
                18.080780029296875
            ],
            "min" : [
                -18.080781936645508,
                -50.02067565917969,
                -18.080781936645508
            ],
            "type" : "VEC3"
        },
        {
            "bufferView" : 24,
            "componentType" : 5126,
            "count" : 1488,
            "type" : "VEC2"
        },
        {
            "bufferView" : 25,
            "componentType" : 5126,
            "count" : 1488,
            "type" : "VEC3"
        },
        {
            "bufferView" : 26,
            "componentType" : 5126,
            "count" : 1488,
            "max" : [
                18.080781936645508,
                114.0608901977539,
                18.080780029296875
            ],
            "min" : [
                -18.080781936645508,
                -50.02067565917969,
                -18.080781936645508
            ],
            "type" : "VEC3"
        },
        {
            "bufferView" : 27,
            "componentType" : 5126,
            "count" : 1488,
            "type" : "VEC2"
        },
        {
            "bufferView" : 28,
            "componentType" : 5126,
            "count" : 1488,
            "type" : "VEC3"
        },
        {
            "bufferView" : 29,
            "componentType" : 5126,
            "count" : 1488,
            "max" : [
                18.080781936645508,
                114.0608901977539,
                18.080780029296875
            ],
            "min" : [
                -18.080781936645508,
                -50.02067565917969,
                -18.080781936645508
            ],
            "type" : "VEC3"
        },
        {
            "bufferView" : 30,
            "componentType" : 5126,
            "count" : 1488,
            "type" : "VEC2"
        },
        {
            "bufferView" : 31,
            "componentType" : 5126,
            "count" : 1488,
            "type" : "VEC3"
        },
        {
            "bufferView" : 32,
            "componentType" : 5126,
            "count" : 1488,
            "max" : [
                18.080781936645508,
                114.0608901977539,
                18.080780029296875
            ],
            "min" : [
                -18.080781936645508,
                -50.02067565917969,
                -18.080781936645508
            ],
            "type" : "VEC3"
        },
        {
            "bufferView" : 33,
            "componentType" : 5126,
            "count" : 1488,
            "type" : "VEC2"
        },
        {
            "bufferView" : 34,
            "componentType" : 5126,
            "count" : 1488,
            "type" : "VEC3"
        }
    ],
    "bufferViews" : [
        {
            "buffer" : 0,
            "byteLength" : 208284,
            "byteOffset" : 0,
            "target" : 34962
        },
        {
            "buffer" : 0,
            "byteLength" : 138856,
            "byteOffset" : 208284,
            "target" : 34962
        },
        {
            "buffer" : 0,
            "byteLength" : 208284,
            "byteOffset" : 347140,
            "target" : 34962
        },
        {
            "buffer" : 0,
            "byteLength" : 75600,
            "byteOffset" : 555424,
            "target" : 34963
        },
        {
            "buffer" : 0,
            "byteLength" : 288,
            "byteOffset" : 631024,
            "target" : 34962
        },
        {
            "buffer" : 0,
            "byteLength" : 192,
            "byteOffset" : 631312,
            "target" : 34962
        },
        {
            "buffer" : 0,
            "byteLength" : 288,
            "byteOffset" : 631504,
            "target" : 34962
        },
        {
            "buffer" : 0,
            "byteLength" : 72,
            "byteOffset" : 631792,
            "target" : 34963
        },
        {
            "buffer" : 0,
            "byteLength" : 82812,
            "byteOffset" : 631864,
            "target" : 34962
        },
        {
            "buffer" : 0,
            "byteLength" : 55208,
            "byteOffset" : 714676,
            "target" : 34962
        },
        {
            "buffer" : 0,
            "byteLength" : 82812,
            "byteOffset" : 769884,
            "target" : 34962
        },
        {
            "buffer" : 0,
            "byteLength" : 23604,
            "byteOffset" : 852696,
            "target" : 34963
        },
        {
            "buffer" : 0,
            "byteLength" : 14472,
            "byteOffset" : 876300,
            "target" : 34962
        },
        {
            "buffer" : 0,
            "byteLength" : 9648,
            "byteOffset" : 890772,
            "target" : 34962
        },
        {
            "buffer" : 0,
            "byteLength" : 14472,
            "byteOffset" : 900420,
            "target" : 34962
        },
        {
            "buffer" : 0,
            "byteLength" : 4656,
            "byteOffset" : 914892,
            "target" : 34963
        },
        {
            "buffer" : 0,
            "byteLength" : 17856,
            "byteOffset" : 919548,
            "target" : 34962
        },
        {
            "buffer" : 0,
            "byteLength" : 11904,
            "byteOffset" : 937404,
            "target" : 34962
        },
        {
            "buffer" : 0,
            "byteLength" : 17856,
            "byteOffset" : 949308,
            "target" : 34962
        },
        {
            "buffer" : 0,
            "byteLength" : 5928,
            "byteOffset" : 967164,
            "target" : 34963
        },
        {
            "buffer" : 0,
            "byteLength" : 17856,
            "byteOffset" : 973092,
            "target" : 34962
        },
        {
            "buffer" : 0,
            "byteLength" : 11904,
            "byteOffset" : 990948,
            "target" : 34962
        },
        {
            "buffer" : 0,
            "byteLength" : 17856,
            "byteOffset" : 1002852,
            "target" : 34962
        },
        {
            "buffer" : 0,
            "byteLength" : 17856,
            "byteOffset" : 1020708,
            "target" : 34962
        },
        {
            "buffer" : 0,
            "byteLength" : 11904,
            "byteOffset" : 1038564,
            "target" : 34962
        },
        {
            "buffer" : 0,
            "byteLength" : 17856,
            "byteOffset" : 1050468,
            "target" : 34962
        },
        {
            "buffer" : 0,
            "byteLength" : 17856,
            "byteOffset" : 1068324,
            "target" : 34962
        },
        {
            "buffer" : 0,
            "byteLength" : 11904,
            "byteOffset" : 1086180,
            "target" : 34962
        },
        {
            "buffer" : 0,
            "byteLength" : 17856,
            "byteOffset" : 1098084,
            "target" : 34962
        },
        {
            "buffer" : 0,
            "byteLength" : 17856,
            "byteOffset" : 1115940,
            "target" : 34962
        },
        {
            "buffer" : 0,
            "byteLength" : 11904,
            "byteOffset" : 1133796,
            "target" : 34962
        },
        {
            "buffer" : 0,
            "byteLength" : 17856,
            "byteOffset" : 1145700,
            "target" : 34962
        },
        {
            "buffer" : 0,
            "byteLength" : 17856,
            "byteOffset" : 1163556,
            "target" : 34962
        },
        {
            "buffer" : 0,
            "byteLength" : 11904,
            "byteOffset" : 1181412,
            "target" : 34962
        },
        {
            "buffer" : 0,
            "byteLength" : 17856,
            "byteOffset" : 1193316,
            "target" : 34962
        }
    ],
    "buffers" : [
        {
            "byteLength" : 1211172,
            "uri" : "castle.bin"
        }
    ]
}
